<svg width="18" height="18" viewBox="0 0 18 18" fill="none" xmlns="http://www.w3.org/2000/svg">
<g clip-path="url(#clip0_74_2335)">
<path d="M5.25 16.5H3.75C3.15326 16.5 2.58097 16.2629 2.15901 15.841C1.73705 15.419 1.5 14.8467 1.5 14.25V3.75C1.5 3.15326 1.73705 2.58097 2.15901 2.15901C2.58097 1.73705 3.15326 1.5 3.75 1.5H5.25C5.44891 1.5 5.63968 1.42098 5.78033 1.28033C5.92098 1.13968 6 0.948912 6 0.75C6 0.551088 5.92098 0.360322 5.78033 0.21967C5.63968 0.0790176 5.44891 0 5.25 0L3.75 0C2.7558 0.00119089 1.80267 0.396661 1.09966 1.09966C0.396661 1.80267 0.00119089 2.7558 0 3.75L0 14.25C0.00119089 15.2442 0.396661 16.1973 1.09966 16.9003C1.80267 17.6033 2.7558 17.9988 3.75 18H5.25C5.44891 18 5.63968 17.921 5.78033 17.7803C5.92098 17.6397 6 17.4489 6 17.25C6 17.0511 5.92098 16.8603 5.78033 16.7197C5.63968 16.579 5.44891 16.5 5.25 16.5Z" fill="black"/>
<path d="M7.8465 3.96975L4.40625 7.40925C3.98573 7.83187 3.74965 8.4038 3.74965 9C3.74965 9.59619 3.98573 10.1681 4.40625 10.5907L7.84575 14.0303C7.91494 14.1019 7.9977 14.159 8.0892 14.1983C8.1807 14.2376 8.27912 14.2583 8.3787 14.2592C8.47829 14.2601 8.57705 14.2411 8.66922 14.2034C8.76139 14.1657 8.84513 14.11 8.91555 14.0395C8.98597 13.9691 9.04166 13.8854 9.07937 13.7932C9.11708 13.701 9.13606 13.6023 9.13519 13.5027C9.13433 13.4031 9.11364 13.3047 9.07433 13.2132C9.03502 13.1217 8.97789 13.0389 8.90625 12.9697L5.688 9.75H17.25C17.4489 9.75 17.6397 9.67098 17.7803 9.53033C17.921 9.38968 18 9.19891 18 9C18 8.80109 17.921 8.61032 17.7803 8.46967C17.6397 8.32902 17.4489 8.25 17.25 8.25H5.68725L8.907 5.03025C8.97864 4.96106 9.03577 4.87831 9.07508 4.7868C9.11439 4.6953 9.13508 4.59689 9.13594 4.4973C9.13681 4.39772 9.11783 4.29896 9.08012 4.20678C9.04241 4.11461 8.98672 4.03087 8.9163 3.96045C8.84588 3.89003 8.76214 3.83434 8.66997 3.79663C8.5778 3.75892 8.47904 3.73995 8.37945 3.74081C8.27987 3.74168 8.18145 3.76237 8.08995 3.80167C7.99845 3.84098 7.91569 3.89812 7.8465 3.96975Z" fill="black"/>
</g>
<defs>
<clipPath id="clip0_74_2335">
<rect width="18" height="18" fill="black"/>
</clipPath>
</defs>
</svg>
